<?xml version="1.0" standalone="no"?>
<!DOCTYPE svg PUBLIC "-//W3C//DTD SVG 20010904//EN"
 "http://www.w3.org/TR/2001/REC-SVG-20010904/DTD/svg10.dtd">
<svg version="1.0" xmlns="http://www.w3.org/2000/svg"
 width="300.000000pt" height="138.000000pt" viewBox="0 0 300.000000 138.000000"
 preserveAspectRatio="xMidYMid meet">
<metadata>
Created by potrace 1.10, written by Peter Selinger 2001-2011
</metadata>
<g transform="translate(0.000000,138.000000) scale(0.100000,-0.100000)"
fill="#000000" stroke="none">
<path d="M6 1369 c3 -5 15 -9 27 -9 l22 0 -3 -495 -2 -495 -25 0 c-14 0 -25
-4 -25 -9 0 -5 82 -8 183 -7 l182 1 24 150 c13 83 25 156 27 163 2 8 29 12 87
12 l84 0 22 -127 c12 -71 25 -140 28 -155 5 -25 3 -28 -21 -28 -14 0 -26 -4
-26 -8 0 -4 50 -8 110 -9 61 0 110 3 110 8 0 5 -13 9 -30 9 l-30 0 0 485 c0
267 2 485 4 485 3 0 9 -15 15 -32 5 -18 72 -231 149 -473 77 -242 143 -450
147 -462 20 -70 25 9 25 415 0 272 4 451 11 474 5 21 21 50 34 65 21 25 31 29
104 33 51 3 81 1 81 -5 0 -5 -21 -112 -47 -237 l-47 -228 -33 0 c-21 0 -33 -5
-33 -13 0 -9 10 -12 30 -9 17 2 30 2 30 0 0 -8 -100 -483 -105 -499 -5 -14 15
-15 175 -15 l180 1 0 258 0 257 45 0 45 0 0 -258 0 -259 176 1 176 0 -5 38
c-3 21 -3 38 0 38 2 0 16 -13 29 -30 68 -80 261 -61 306 30 15 30 18 65 18
238 l0 202 86 0 86 0 -3 -257 -4 -258 238 -1 c130 -1 240 3 243 7 3 5 -9 9
-26 9 l-31 0 3 250 3 250 73 0 c41 0 72 4 72 10 0 6 -32 10 -76 10 -74 0 -76
1 -70 23 3 12 6 119 6 238 l0 216 25 -5 c14 -2 25 0 25 5 0 6 -40 10 -95 10
-52 0 -95 -4 -95 -8 0 -5 11 -9 25 -9 l25 0 0 -235 0 -235 -130 0 -130 0 0
238 0 239 45 -7 c25 -4 56 -17 69 -29 26 -25 46 -82 46 -135 0 -20 5 -36 10
-36 6 0 10 43 10 108 l0 109 -220 0 -220 0 0 -40 0 -40 -22 28 c-29 38 -76 55
-147 55 -78 0 -135 -23 -161 -65 -18 -30 -20 -49 -20 -229 l0 -196 -127 0
-128 0 3 237 2 238 25 -3 c14 -2 25 1 25 7 0 6 -13 11 -29 11 -51 0 -61 -9
-61 -54 0 -24 -3 -46 -7 -49 -12 -13 -43 26 -43 55 0 25 -3 28 -33 28 -18 0
-38 5 -45 12 -6 6 -14 9 -17 7 -2 -3 -6 -114 -7 -247 l-3 -242 -71 0 -70 0 53
238 c29 130 53 240 53 243 0 3 -79 6 -175 6 l-175 1 -2 -357 -3 -358 -115 355
-115 355 -78 4 c-48 2 -77 0 -77 -7 0 -5 13 -10 29 -10 l29 0 -1 -495 c-1
-272 -5 -495 -8 -495 -4 0 -11 26 -17 57 -103 604 -168 953 -176 950 -11 -4
-34 -119 -106 -532 -63 -362 -67 -381 -102 -420 -35 -40 -84 -58 -148 -53
l-45 3 0 73 c0 39 2 261 3 492 l2 420 25 0 c14 0 25 4 25 9 0 4 -43 8 -95 8
-52 0 -92 -4 -89 -8z m2123 -15 c44 -31 51 -69 51 -274 l0 -190 -101 0 -100 0
3 211 3 211 33 29 c37 33 76 37 111 13z m301 -229 l0 -235 -85 0 -85 0 0 168
c0 186 7 226 49 271 24 26 37 31 75 31 l46 0 0 -235z m-870 -40 l0 -195 -45 0
-45 0 0 188 c0 104 3 192 7 195 3 4 24 7 45 7 l38 0 0 -195z m-1010 -190 c18
-99 34 -183 37 -187 2 -5 -35 -8 -82 -8 -85 0 -87 0 -82 23 3 12 20 103 37
202 17 99 34 191 37 205 7 30 6 33 53 -235z m902 -217 c-5 -278 -23 -308 -182
-308 -63 0 -71 2 -66 18 3 9 26 114 51 232 26 118 49 223 51 233 5 14 17 17
77 17 l72 0 -3 -192z m447 0 c-4 -171 -6 -198 -25 -233 -28 -55 -71 -75 -161
-75 l-73 0 0 250 0 250 131 0 131 0 -3 -192z m281 -7 c0 -206 -5 -238 -42
-279 -23 -24 -75 -30 -109 -12 -43 24 -49 57 -49 280 l0 210 100 0 100 0 0
-199z m590 -51 l0 -250 -130 0 -130 0 0 250 0 250 130 0 130 0 0 -250z"/>
<path d="M50 77 c0 -55 3 -76 11 -71 7 4 9 23 5 50 -7 52 2 56 27 13 14 -25
20 -29 32 -19 8 6 17 20 20 31 13 38 28 20 22 -26 -5 -32 -3 -45 6 -45 8 0 11
19 10 66 -1 36 -4 68 -6 71 -3 3 -18 -15 -33 -38 l-27 -43 -16 24 c-48 72 -50
72 -51 -13z"/>
<path d="M340 142 c-31 -10 -50 -36 -50 -68 0 -59 70 -91 116 -53 17 14 23 60
12 85 -11 25 -53 44 -78 36z m60 -48 c7 -16 7 -32 0 -44 -24 -44 -90 -31 -90
18 0 36 17 52 52 52 21 0 31 -6 38 -26z"/>
<path d="M537 144 c-4 -4 -7 -36 -7 -71 l0 -63 49 0 c40 0 53 4 65 22 35 50 7
103 -60 113 -22 3 -43 2 -47 -1z m94 -45 c15 -28 -3 -69 -30 -69 -11 0 -26 -3
-35 -6 -13 -5 -16 2 -16 45 l0 51 35 0 c25 0 37 -6 46 -21z"/>
<path d="M776 80 c-19 -38 -31 -72 -26 -75 5 -3 14 4 20 15 16 29 75 28 91 -2
7 -13 14 -18 16 -12 4 12 -53 144 -61 144 -3 0 -21 -31 -40 -70z m42 -18 c-27
-5 -32 2 -18 29 l13 22 13 -24 c11 -22 11 -24 -8 -27z"/>
<path d="M1067 143 c-11 -10 -8 -133 2 -133 6 0 11 21 13 48 l3 47 20 -32 c10
-18 23 -33 27 -33 4 0 15 15 25 33 l18 32 3 -47 c5 -75 22 -56 22 23 0 64 -2
70 -16 58 -8 -7 -22 -25 -30 -41 -8 -15 -18 -28 -22 -28 -5 0 -18 18 -31 40
-24 43 -24 43 -34 33z"/>
<path d="M1330 83 c-29 -63 -37 -114 -11 -65 14 26 78 32 87 7 4 -8 12 -15 20
-15 10 0 4 20 -21 70 -19 39 -37 70 -40 70 -3 0 -18 -30 -35 -67z m60 -15 c0
-4 -11 -8 -25 -8 -23 0 -24 2 -13 26 11 24 13 25 25 8 7 -10 13 -21 13 -26z"/>
<path d="M1980 85 c0 -62 2 -66 26 -76 28 -10 64 -3 76 15 11 16 10 126 -2
126 -5 0 -10 -28 -12 -62 -3 -63 -3 -63 -33 -63 -30 0 -30 0 -33 63 -4 82 -22
80 -22 -3z"/>
<path d="M2208 144 c-5 -4 -8 -36 -8 -71 l0 -63 56 0 c38 0 53 3 48 11 -4 7
-22 9 -45 6 l-38 -5 -3 65 c-2 36 -6 61 -10 57z"/>
<path d="M2400 80 c0 -40 4 -70 10 -70 6 0 10 30 10 70 0 40 -4 70 -10 70 -6
0 -10 -30 -10 -70z"/>
<path d="M2540 83 c0 -48 4 -73 11 -73 8 0 10 15 7 45 -3 25 -3 45 1 45 3 0
21 -21 40 -45 18 -25 37 -45 42 -45 12 0 11 127 -1 135 -6 4 -10 -14 -10 -47
l-1 -53 -21 25 c-11 14 -31 39 -44 55 l-24 30 0 -72z"/>
<path d="M2781 83 c-17 -36 -30 -71 -28 -77 2 -6 9 -1 16 12 16 30 75 31 91 2
6 -11 15 -18 20 -15 9 5 -54 145 -64 145 -2 0 -18 -30 -35 -67z m59 -15 c0 -4
-11 -8 -25 -8 -23 0 -24 2 -13 26 11 24 13 25 25 8 7 -10 13 -21 13 -26z"/>
<path d="M1537 133 c-14 -13 -7 -43 12 -53 11 -5 31 -10 46 -10 29 0 45 -27
24 -41 -14 -9 -28 -8 -79 7 -23 6 -24 6 -9 -11 20 -20 81 -24 103 -6 38 31 8
71 -53 71 -22 0 -31 5 -31 16 0 14 8 16 45 12 44 -5 61 4 29 16 -21 8 -79 8
-87 -1z"/>
<path d="M1767 122 c-10 -10 -17 -33 -17 -50 0 -58 71 -88 117 -50 23 18 3 28
-23 11 -35 -23 -74 -5 -74 35 0 15 5 33 12 40 15 15 51 15 66 0 17 -17 28 -2
12 17 -17 21 -73 19 -93 -3z"/>
</g>
</svg>
